<?xml version="1.0" encoding="UTF-8" standalone="no"?>
<svg
   xmlns:dc="http://purl.org/dc/elements/1.1/"
   xmlns:cc="http://creativecommons.org/ns#"
   xmlns:rdf="http://www.w3.org/1999/02/22-rdf-syntax-ns#"
   xmlns:svg="http://www.w3.org/2000/svg"
   xmlns="http://www.w3.org/2000/svg"
   xmlns:sodipodi="http://sodipodi.sourceforge.net/DTD/sodipodi-0.dtd"
   xmlns:inkscape="http://www.inkscape.org/namespaces/inkscape"
   viewBox="0 0 124.44 144.00"
   id="svg4256"
   version="1.1"
   inkscape:version="0.91 r13725"
   sodipodi:docname="rcoleo.svg">
  <metadata
     id="metadata4317">
    <rdf:RDF>
      <cc:Work
         rdf:about="">
        <dc:format>image/svg+xml</dc:format>
        <dc:type
           rdf:resource="http://purl.org/dc/dcmitype/StillImage" />
      </cc:Work>
    </rdf:RDF>
  </metadata>
  <sodipodi:namedview
     pagecolor="#ffffff"
     bordercolor="#666666"
     borderopacity="1"
     objecttolerance="10"
     gridtolerance="10"
     guidetolerance="10"
     inkscape:pageopacity="0"
     inkscape:pageshadow="2"
     inkscape:window-width="3078"
     inkscape:window-height="1752"
     id="namedview4315"
     showgrid="false"
     showguides="true"
     inkscape:guide-bbox="true"
     inkscape:zoom="8"
     inkscape:cx="63.675652"
     inkscape:cy="70.199652"
     inkscape:window-x="122"
     inkscape:window-y="48"
     inkscape:window-maximized="1"
     inkscape:current-layer="svg4256">
    <sodipodi:guide
       position="62.348844,36.337482"
       orientation="1,0"
       id="guide4997" />
    <sodipodi:guide
       position="47.186442,74.374199"
       orientation="0,1"
       id="guide4999" />
    <sodipodi:guide
       position="62.137007,112.69514"
       orientation="1,0"
       id="guide4155" />
  </sodipodi:namedview>
  <defs
     id="defs4258">
    <style
       type="text/css"
       id="style4260"><![CDATA[
    line, polyline, path, rect, circle {
      fill: none;
      stroke: #000000;
      stroke-linecap: round;
      stroke-linejoin: round;
      stroke-miterlimit: 10.00;
    }
  ]]></style>
  </defs>
  <rect
     width="100%"
     height="100%"
     style="stroke: none; fill: none;"
     id="rect4262" />
  <defs
     id="defs4264">
    <clipPath
       id="cpMC44MjQ4OTd8MTIzLjYxNnwxNDR8MA==">
      <rect
         x="0.82"
         y="0.00"
         width="122.79"
         height="144.00"
         id="rect4267" />
    </clipPath>
  </defs>
  <rect
     x="0.82"
     y="0.00"
     width="122.79"
     height="144.00"
     style="stroke-width: 1.07; stroke: none;"
     clip-path="url(#cpMC44MjQ4OTd8MTIzLjYxNnwxNDR8MA==)"
     id="rect4269" />
  <defs
     id="defs4271">
    <clipPath
       id="cpMHwxMjQuNDQxfDE0NHww">
      <rect
         x="0.00"
         y="0.00"
         width="124.44"
         height="144.00"
         id="rect4274" />
    </clipPath>
  </defs>
  <defs
     id="defs4276">
    <clipPath
       id="cpMC42ODQ2MjN8MTIzLjYxNnwxNDR8MA==">
      <rect
         x="0.68"
         y="0.00"
         width="122.93"
         height="144.00"
         id="rect4279" />
    </clipPath>
  </defs>
  <rect
     x="0.68"
     y="-0.00"
     width="122.93"
     height="144.14"
     style="stroke-width: 1.07; stroke: none;"
     clip-path="url(#cpMC42ODQ2MjN8MTIzLjYxNnwxNDR8MA==)"
     id="rect4281" />
  <polyline
     points="1.89,37.28 1.89,106.86 62.15,141.65 122.41,106.86 122.41,37.28 62.15,2.49 1.89,37.28 "
     style="stroke-width: 2.56; stroke: #2F6496; fill: #2F6496;"
     clip-path="url(#cpMC42ODQ2MjN8MTIzLjYxNnwxNDR8MA==)"
     id="polyline4283" />
  <g
     clip-path="url(#cpMC42ODQ2MjN8MTIzLjYxNnwxNDR8MA==)"
     id="g4285" />
  <defs
     id="defs4309">
    <clipPath
       id="clipPath4311">
      <rect
         x="0.00"
         y="0.00"
         width="124.44"
         height="144.00"
         id="rect4313" />
    </clipPath>
  </defs>
  <text
     transform="matrix(1.0086679,0.00538338,-0.0052911,0.99137834,0,0)"
     inkscape:export-ydpi="90"
     inkscape:export-xdpi="90"
     inkscape:export-filename="/home/local/USHERBROOKE/viss2501/Documents/Git/Talk_rcoleo/assets/img/coleo.png"
     sodipodi:linespacing="125%"
     id="text5622-8"
     y="37.761299"
     x="31.288544"
     style="font-style:normal;font-variant:normal;font-weight:normal;font-stretch:normal;font-size:25.52674675px;line-height:125%;font-family:'monofur for Powerline';-inkscape-font-specification:'monofur for Powerline';text-align:start;letter-spacing:0px;word-spacing:0px;writing-mode:lr-tb;text-anchor:start;fill:#ffffff;fill-opacity:1;stroke:none;stroke-width:1px;stroke-linecap:butt;stroke-linejoin:miter;stroke-opacity:1"
     xml:space="preserve"><tspan
       style="font-style:normal;font-variant:normal;font-weight:normal;font-stretch:normal;font-size:20px;line-height:125%;font-family:'monofur for Powerline';-inkscape-font-specification:'monofur for Powerline';text-align:start;letter-spacing:0px;word-spacing:0px;writing-mode:lr-tb;text-anchor:start;fill:#ffffff;fill-opacity:1"
       y="37.761299"
       x="31.288544"
       id="tspan5624-4"
       sodipodi:role="line">rcoleo</tspan></text>
  <path
     inkscape:export-ydpi="90"
     inkscape:export-xdpi="90"
     inkscape:export-filename="/home/local/USHERBROOKE/viss2501/Documents/Git/Talk_rcoleo/assets/img/coleo.png"
     style="fill:#ffffff;fill-opacity:1;stroke:none;stroke-linecap:round;stroke-linejoin:round;stroke-miterlimit:10"
     sodipodi:nodetypes="ccssscssssssssssssscsssccccccccccccccccccccccc"
     inkscape:connector-curvature="0"
     id="path6319-3"
     d="m 42.976451,74.87678 c 0,0 0.0269,-7.843994 3.196245,-11.532125 0.563749,-0.61753 1.454971,-1.279626 1.980484,-1.471339 0.905858,-0.33047 0.965827,-0.438035 1.154361,-2.072024 0.310977,-2.694559 0.943867,-4.272302 2.134889,-5.321972 l 1.061585,-0.93561 -0.920523,-0.896409 c -0.811768,-0.790529 -0.918896,-1.075524 -0.906711,-2.41247 0.01923,-2.063874 0.76321,-3.202197 2.679879,-4.097825 1.452336,-0.678612 3.602628,-0.936411 4.622344,-0.554127 0.386298,0.144823 0.344923,0.273628 -0.269227,0.838453 -0.784708,0.721643 -0.970631,1.999929 -0.436615,3.001866 0.56201,1.05435 2.432747,1.627716 5.246104,1.60775 2.813369,-0.01994 4.693992,-0.619894 5.273701,-1.682351 0.499155,-0.91482 0.383443,-2.256761 -0.248747,-2.884826 -0.31716,-0.315132 -0.499061,-0.696402 -0.404021,-0.847349 0.34069,-0.542107 3.092289,-0.310167 4.625177,0.389855 1.90189,0.868554 2.62734,1.996461 2.611475,4.060305 -0.0099,1.336918 -0.122185,1.623479 -0.947311,2.425608 l -0.935621,0.909618 1.046009,0.920653 c 1.17354,1.032914 1.780071,2.601869 2.045856,5.292348 0.161165,1.631469 0.219315,1.738238 1.119745,2.055896 1.644052,0.580022 4.392221,4.294969 4.378583,5.919002 0.729286,1.720076 8.31773,56.088123 -16.211472,60.090153 -2.617011,0.37449 -3.390158,0.3799 -5.996858,0.0424 C 34.639189,121.08634 42.49299,81.59207 42.976762,74.876634 Z M 61.543354,93.597012 C 61.512262,86.307445 60.949398,78.80162 60.949398,78.80162 c -2.819125,-0.931645 -5.478494,-0.855529 -7.294933,-0.81996 -5.373006,0.108534 -5.599161,0.968069 -6.852312,1.617317 -7.377282,6.830116 -3.655802,44.376603 13.165037,45.676863 l 0.640343,0.0196 c 0.535582,-12.05659 0.935859,-23.84825 0.935848,-31.698349 z m 3.952692,31.348158 c 15.82609,-7.46741 18.077683,-38.829189 12.248983,-45.562825 -0.291363,-1.238759 -1.418355,-1.490781 -6.811941,-1.523243 -2.535026,0.03502 -5.724639,-0.720277 -7.004129,1.464082 -0.13507,0.343915 -0.315718,6.89823 -0.473422,14.19278 -0.01294,9.820706 -0.277475,18.806826 -0.0884,28.147226 0.247224,3.87239 -0.337324,3.82339 2.12892,3.28197 z M 76.910752,76.225777 C 80.584665,74.079879 79.944861,64.891294 76.05056,62.632683 69.167002,59.624975 50.536263,62.205104 50.536263,62.205104 44.762869,64.02185 42.976451,74.87678 49.381784,76.818259 c 6.360762,0.02163 21.189629,0.12585 27.528968,-0.592482 z" />
</svg>
